inDegrees=yes
name=ik_lifting_orientations
DataType=double
version=3
OpenSimVersion=4.5-2024-01-10-34fd6af
endheader
time	pelvis_tilt	pelvis_list	pelvis_rotation	pelvis_tx	pelvis_ty	pelvis_tz	hip_flexion_r	hip_adduction_r	hip_rotation_r	knee_angle_r	knee_angle_r_beta	ankle_angle_r	subtalar_angle_r	mtp_angle_r	hip_flexion_l	hip_adduction_l	hip_rotation_l	knee_angle_l	knee_angle_l_beta	ankle_angle_l	subtalar_angle_l	mtp_angle_l	lumbar_extension	lumbar_bending	lumbar_rotation	arm_flex_r	arm_add_r	arm_rot_r	elbow_flex_r	pro_sup_r	wrist_flex_r	wrist_dev_r	arm_flex_l	arm_add_l	arm_rot_l	elbow_flex_l	pro_sup_l	wrist_flex_l	wrist_dev_l
0.6899999999999999	-4.487303682502364	-4.051928300151875	-95.70514244624798	0	0.9399999998679526	0	45.30589743897064	-10.56888933352767	0	60.71447517586247	1.059667495439163	-5.196109111089489	0	0	45.30589743897064	-10.56888933352767	0	60.71447517586247	1.059667495439163	-5.196109111089489	0	0	-20.6924280421465	13.79186698113309	22.13227361740374	11.33585596897541	-18.23924685138481	-10.09247920836753	4.639683868784067	0.9411838721562545	0	0	0	-10.88872339603961	0	89.09020652329944	0.9411838721562545	0	0
0.7	-4.925828500905111	-4.437820743658802	-95.87501168222605	0	0.9399999998679526	0	45.30580899220418	-10.56831778425161	0	60.71431238413238	1.059664654187478	-5.19585246935708	0	0	45.30580899220418	-10.56831778425161	0	60.71431238413238	1.059664654187478	-5.19585246935708	0	0	-22.70259350490255	14.79706658042344	23.60900104216818	12.3590778837248	-19.37235677590349	-10.96092954181992	4.374926397357174	0.9409942028636807	0	0	0	-10.8893346410212	0	89.09038983049558	0.9409942028636807	0	0
0.71	-5.461080909353411	-4.847287517576849	-96.66144831084907	0	0.9399999998679526	0	45.30571017371675	-10.5676803701775	0	60.71413029681576	1.059661476164277	-5.195566383749007	0	0	45.30571017371675	-10.5676803701775	0	60.71413029681576	1.059661476164277	-5.195566383749007	0	0	-24.96645736420948	15.52683823653383	25.85732827162562	13.49686800796899	-20.44482305923101	-11.90084573145437	4.012165899724097	0.9407821881563305	0	0	0	-10.89001817565837	0	89.09059473357506	0.9407821881563305	0	0
0.72	-6.005491605127264	-5.277077003503134	-97.29803419863637	0	0.9399999998679526	0	45.30562025521671	-10.56710100375216	0	60.71396456760287	1.059658583643845	-5.195306459271073	0	0	45.30562025521671	-10.56710100375216	0	60.71396456760287	1.059658583643845	-5.195306459271073	0	0	-27.21562808709743	16.22571472074091	28.02653083967393	14.49875546787049	-21.52263263176449	-12.91137797956668	3.684208677715791	0.9405892353802231	0	0	0	-10.89064032637209	0	89.09078121412051	0.9405892353802231	0	0
0.73	-6.453505020310894	-5.657946964560585	-97.4626650770052	0	0.9399999998679526	0	45.30551447700856	-10.56641605501423	0	60.71377048371697	1.059655196241011	-5.19499892552447	0	0	45.30551447700856	-10.56641605501423	0	60.71377048371697	1.059655196241011	-5.19499892552447	0	0	-29.36096623050981	17.01040621192952	29.69993917975847	15.54934761341926	-22.53582730628783	-13.8016200132577	3.460642140987197	0.9403626292230912	0	0	0	-10.89136994135978	0	89.09100021919855	0.9403626292230912	0	0
0.74	-6.894145159570451	-6.010342756327042	-97.64422917057381	0	0.9399999998679526	0	45.30540184634143	-10.56568600947319	0	60.71356408590735	1.059651593919665	-5.194671131567721	0	0	45.30540184634143	-10.56568600947319	0	60.71356408590735	1.059651593919665	-5.194671131567721	0	0	-31.02090761637074	17.56586863274317	31.07558161137526	16.35112317715068	-23.07199511890229	-14.57097211981116	3.202133576156594	0.9401214437919657	0	0	0	-10.89214621351362	0	89.09123331451374	0.9401214437919657	0	0
0.75	-7.317845695199699	-6.420072987457383	-97.45753598893843	0	0.9399999998679526	0	45.30526599880232	-10.56480621924332	0	60.71331521320099	1.05964725027152	-5.194276286639058	0	0	45.30526599880232	-10.56480621924332	0	60.71331521320099	1.05964725027152	-5.194276286639058	0	0	-32.62588972121659	18.27718912339129	32.13846840348238	17.0422793585863	-23.66749881053268	-15.25218827599503	2.947199499500977	0.9398305426048388	0	0	0	-10.8930824550406	0	89.09151445796273	0.9398305426048388	0	0
0.76	-7.689052466138281	-6.784511604199339	-97.12011216100584	0	0.9399999998679526	0	45.30517230944562	-10.56420020180865	0	60.71314352849622	1.059644253808147	-5.194004436363989	0	0	45.30517230944562	-10.56420020180865	0	60.71314352849622	1.059644253808147	-5.194004436363989	0	0	-34.19369434269962	19.02897523745877	33.18316610853183	17.8421844948173	-24.14301845254174	-15.81513669947535	2.573645943145944	0.9396298805393182	0	0	0	-10.89372835059424	0	89.09170838919458	0.9396298805393182	0	0
0.77	-8.047343678625712	-7.13823065869212	-96.79473584654625	0	0.9399999998679526	0	45.30506907568584	-10.56353312969205	0	60.71295431954718	1.059640951489012	-5.19370531815921	0	0	45.30506907568584	-10.56353312969205	0	60.71295431954718	1.059640951489012	-5.19370531815921	0	0	-35.99051076187273	19.75392793596506	34.48178269925099	18.70620278615116	-24.90885827338987	-16.32098756879159	2.32073034138798	0.9394087445865781	0	0	0	-10.89444021376727	0	89.09192210755644	0.9394087445865781	0	0
0.78	-8.322214556175247	-7.439110261470045	-96.38338632852359	0	0.9399999998679526	0	45.30494440164832	-10.56272742175586	0	60.71272597195158	1.05963696607163	-5.193344097796984	0	0	45.30494440164832	-10.56272742175586	0	60.71272597195158	1.05963696607163	-5.193344097796984	0	0	-37.96399925730491	20.48306555672272	35.96027884428073	19.68735392771179	-25.88415101349352	-17.0478122376423	1.804876029834063	0.9391417316068683	0	0	0	-10.89529960530198	0	89.09218016408542	0.9391417316068683	0	0
0.79	-8.643462545390154	-7.756410573618806	-96.21644249179353	0	0.9399999998679526	0	45.30484183826609	-10.5620650871633	0	60.71253814239122	1.059633687827369	-5.193047264293773	0	0	45.30484183826609	-10.5620650871633	0	60.71253814239122	1.059633687827369	-5.193047264293773	0	0	-40.17657878625882	21.17072346723623	37.59235448581234	20.63311387040825	-26.8564577784126	-17.58069438183229	1.554054417856242	0.9389220638202249	0	0	0	-10.89600661737243	0	89.0923924635278	0.9389220638202249	0	0
0.8	-9.046510602562432	-8.075078732660614	-96.34848145631867	0	0.9399999998679526	0	45.30471688222363	-10.56125767850197	0	60.7123095254616	1.059629697709221	-5.192685434824236	0	0	45.30471688222363	-10.56125767850197	0	60.7123095254616	1.059629697709221	-5.192685434824236	0	0	-42.54241304089078	21.72451276393946	39.30790430698486	21.68410704511104	-27.81099753967887	-17.90088038965212	1.269744834746983	0.9386545166769711	0	0	0	-10.89686749794774	0	89.09265103630166	0.9386545166769711	0	0
0.8100000000000001	-9.397453023813506	-8.409142554506932	-96.40702520264664	0	0.9399999998679526	0	45.30456880097418	-10.56030100656371	0	60.71203875288414	1.05962497183622	-5.192256828350661	0	0	45.30456880097418	-10.56030100656371	0	60.71203875288414	1.05962497183622	-5.192256828350661	0	0	-44.77629817922399	22.26170778049426	40.7741098881074	22.51852554586455	-28.6457400706507	-18.24622563980632	1.057923896137856	0.9383374955077316	0	0	0	-10.89788743390065	0	89.09295742358707	0.9383374955077316	0	0
0.82	-9.793351486530479	-8.718644599873848	-96.61965689603129	0	0.9399999998679526	0	45.30443611150387	-10.55944490610088	0	60.7117960679541	1.059620736185146	-5.191873481211683	0	0	45.30443611150387	-10.55944490610088	0	60.7117960679541	1.059620736185146	-5.191873481211683	0	0	-47.19585954664551	22.71621758884084	42.41435398329816	23.37701223924938	-29.60609816022313	-18.62578970905179	0.8623823612732198	0.9380533713084589	0	0	0	-10.89880164905214	0	89.09323201737192	0.9380533713084589	0	0
